<?xml version="1.0" encoding="utf-8"?>
<svg xmlns="http://www.w3.org/2000/svg" height="32" viewBox="176.7447 131.7362 112.566 112.566" width="32">
    <g fill="#156839" id="Group-19" transform="matrix(1, 0, 0, 1, 17.42770767211914, 131.73624205589294)">
        <polygon id="Fill-18" points="159.317 112.566 271.883 112.566 271.883 0 159.317 0"/>
    </g>
    <path d="M 219.146 51.151 C 225.263 59.201 228.661 65.093 228.661 65.093 C 226.57 68.75 224.229 72.664 221.64 76.831 C 221.64 76.831 217.874 70.523 211.149 61.673 C 207.759 57.215 199.076 47.274 198.944 47.13 C 198.95 47.326 198.938 90.554 198.965 94.631 L 198.942 94.625 C 198.943 94.64 198.943 94.664 198.943 94.678 L 184.869 94.678 C 184.897 90.6 184.884 47.326 184.891 47.13 C 184.759 47.274 176.075 57.215 172.686 61.673 C 165.96 70.523 162.195 76.831 162.195 76.831 C 159.606 72.664 157.264 68.75 155.173 65.093 C 155.173 65.093 158.571 59.201 164.689 51.151 C 167.389 47.597 173.92 40.212 175.554 38.377 C 170.919 39.228 166.604 40.335 163.387 41.402 C 160.283 42.43 157.909 43.445 156.356 44.173 C 154.876 44.866 154.085 45.31 154.085 45.31 C 155.056 41.518 156.155 38.085 157.403 35.092 C 157.403 35.092 158.145 34.566 159.538 33.751 C 160.991 32.9 163.209 31.727 166.108 30.565 C 169.172 29.337 173.015 28.118 177.402 27.212 C 177.277 27.119 174.499 24.882 173.406 24.177 C 168.352 20.913 166.362 21.967 166.362 21.967 C 168.879 20.152 171.419 18.687 173.937 17.638 C 173.937 17.638 174.329 17.41 175.087 17.229 C 175.895 17.035 177.183 16.931 178.867 17.255 C 180.755 17.619 186.175 20.158 186.267 20.21 C 186.274 20.128 186.528 17.692 186.616 16.83 C 186.878 14.305 187.433 14.46 187.876 14.42 L 195.958 14.42 C 196.402 14.46 196.956 14.305 197.218 16.83 C 197.307 17.692 197.561 20.128 197.568 20.21 C 197.659 20.158 203.079 17.619 204.967 17.255 C 206.652 16.931 207.94 17.035 208.747 17.229 C 209.505 17.41 209.898 17.638 209.898 17.638 C 212.415 18.687 214.955 20.152 217.472 21.967 C 217.472 21.967 215.483 20.913 210.428 24.177 C 209.335 24.882 206.558 27.119 206.433 27.212 C 210.82 28.118 214.662 29.337 217.727 30.565 C 220.625 31.727 222.843 32.9 224.296 33.751 C 225.69 34.566 226.431 35.092 226.431 35.092 C 227.679 38.085 228.778 41.518 229.749 45.31 C 229.749 45.31 228.958 44.866 227.479 44.173 C 225.925 43.445 223.551 42.43 220.447 41.402 C 217.231 40.335 212.915 39.228 208.28 38.377 C 209.914 40.212 216.445 47.597 219.146 51.151" fill="#FFFFFE" id="Fill-20" transform="matrix(1, 0, 0, 1, 41.110862731933594, 133.47064208984375)"/>
</svg>